# xmcd
#
# Track frame offsets:
#	150
#	14727
#	29034
#	47536
#	68617
#	82054
#	96739
#	112910
#	129822
#	145431
#	160275
#	180329
#	195870
#	214457
#	231262
#	245904
#
# Disc length: 3498 seconds
#
# Revision: 1
# Processed by: cddbd v1.5.2PL0 Copyright (c) Steve Scherf et al.
# Submitted via: audiograbber 1.83.01
#
DISCID=e70da810
DTITLE=Lucy Hale - Lucy Hale
DYEAR=2014
DGENRE=Country
TTITLE0=You Sound Good to Me
TTITLE1=From the Backseat
TTITLE2=Nervous Girls
TTITLE3=Red Dress
TTITLE4=Goodbye Gone
TTITLE5=Kiss Me
TTITLE6=Road Between
TTITLE7=Lie a Little Better
TTITLE8=That's What I Call Crazy
TTITLE9=Love Tonight
TTITLE10=Just Another Song
TTITLE11=My Little Black Wedding Dress
TTITLE12=Feels Like Home
TTITLE13=Loved
TTITLE14=Kiss Me (Live Acoustic)
TTITLE15=Road Between (Live Acoustic)
EXTD=
EXTT0=
EXTT1=
EXTT2=
EXTT3=
EXTT4=
EXTT5=
EXTT6=
EXTT7=
EXTT8=
EXTT9=
EXTT10=
EXTT11=
EXTT12=
EXTT13=
EXTT14=
EXTT15=
PLAYORDER=
